<svg width="38" height="38" viewBox="0 0 38 38" fill="none" xmlns="http://www.w3.org/2000/svg">
<path d="M32.786 23.2807C32.6036 22.0134 31.6251 21.0254 30.3654 20.7309C25.4691 19.5833 24.2417 16.7637 24.0346 13.6363C23.1663 13.4748 21.6216 13.3 18.9996 13.3C16.3776 13.3 14.8329 13.4748 13.9646 13.6363C13.7575 16.7637 12.5301 19.5833 7.63383 20.7309C6.37413 21.0273 5.39563 22.0134 5.21323 23.2807L4.26893 29.8205C3.93643 32.1233 5.62743 34.2 7.97963 34.2H30.0196C32.3699 34.2 34.0628 32.1233 33.7303 29.8205L32.786 23.2807ZM18.9996 29.4348C16.3491 29.4348 14.2002 27.3068 14.2002 24.6848C14.2002 22.0628 16.3491 19.9348 18.9996 19.9348C21.6501 19.9348 23.799 22.0628 23.799 24.6848C23.799 27.3068 21.6482 29.4348 18.9996 29.4348ZM37.9046 11.4C37.859 8.55005 30.6048 3.80195 18.9996 3.80005C7.39253 3.80195 0.138327 8.55005 0.0946272 11.4C0.0509272 14.25 0.134527 17.9588 4.91113 17.3413C10.499 16.6174 10.1551 14.6661 10.1551 11.8769C10.1551 9.93135 14.6999 9.46205 18.9996 9.46205C23.2993 9.46205 27.8422 9.93135 27.8441 11.8769C27.8441 14.6661 27.5002 16.6174 33.0881 17.3413C37.8628 17.9588 37.9483 14.25 37.9046 11.4Z" fill="white"/>
</svg>
