<svg width="61" height="61" viewBox="0 0 61 61" fill="none" xmlns="http://www.w3.org/2000/svg">
<path d="M30.5 8C21.391 8 14 14.6238 14 22.7857C14 35.9286 30.5 54 30.5 54C30.5 54 47 35.9286 47 22.7857C47 14.6238 39.609 8 30.5 8ZM30.5 31C29.1946 31 27.9186 30.6146 26.8332 29.8925C25.7479 29.1704 24.9019 28.1441 24.4024 26.9433C23.9029 25.7426 23.7722 24.4213 24.0268 23.1466C24.2815 21.8718 24.9101 20.7009 25.8331 19.7819C26.7561 18.8628 27.9321 18.237 29.2124 17.9834C30.4927 17.7299 31.8197 17.86 33.0257 18.3574C34.2317 18.8547 35.2625 19.697 35.9877 20.7777C36.7129 21.8583 37.1 23.1289 37.1 24.4286C37.0981 26.1708 36.4021 27.8412 35.1648 29.0732C33.9275 30.3051 32.2498 30.9981 30.5 31Z" fill="white"/>
</svg>
