<svg width="18" height="18" viewBox="0 0 18 18" fill="none" xmlns="http://www.w3.org/2000/svg">
<path d="M14.8156 1H1.18125C0.528125 1 0 1.51563 0 2.15313V15.8438C0 16.4813 0.528125 17 1.18125 17H14.8156C15.4688 17 16 16.4813 16 15.8469V2.15313C16 1.51563 15.4688 1 14.8156 1ZM4.74687 14.6344H2.37188V6.99687H4.74687V14.6344ZM3.55938 5.95625C2.79688 5.95625 2.18125 5.34062 2.18125 4.58125C2.18125 3.82188 2.79688 3.20625 3.55938 3.20625C4.31875 3.20625 4.93437 3.82188 4.93437 4.58125C4.93437 5.3375 4.31875 5.95625 3.55938 5.95625ZM13.6344 14.6344H11.2625V10.9219C11.2625 10.0375 11.2469 8.89687 10.0281 8.89687C8.79375 8.89687 8.60625 9.8625 8.60625 10.8594V14.6344H6.2375V6.99687H8.5125V8.04063H8.54375C8.85938 7.44063 9.63438 6.80625 10.7875 6.80625C13.1906 6.80625 13.6344 8.3875 13.6344 10.4438V14.6344Z" fill="#F5C518"/>
</svg>
