<svg width="132" height="132" viewBox="0 0 132 132" fill="none" xmlns="http://www.w3.org/2000/svg">
<path fill-rule="evenodd" clip-rule="evenodd" d="M23.199 22.506C22 24.86 22 27.94 22 34.1V37.477L120.945 28.479C120.84 25.795 120.56 24.002 119.801 22.506C118.746 20.4363 117.064 18.7536 114.994 17.699C112.64 16.5 109.56 16.5 103.4 16.5H39.6C33.44 16.5 30.36 16.5 28.006 17.699C25.9363 18.7536 24.2536 20.4363 23.199 22.506ZM121 39.523L94.2425 41.954L108.026 115.473C111.282 115.401 113.322 115.153 114.994 114.301C117.064 113.246 118.746 111.564 119.801 109.494C121 107.14 121 104.06 121 97.9V39.523ZM96.844 115.5L83.237 42.955L22 48.521V97.9C22 104.06 22 107.14 23.199 109.494C24.2536 111.564 25.9363 113.246 28.006 114.301C30.36 115.5 33.44 115.5 39.6 115.5H96.844ZM74.25 82.665C74.25 94.534 62.48 102.872 57.3485 105.947C56.6391 106.372 55.8273 106.597 55 106.597C54.1727 106.597 53.3609 106.372 52.6515 105.947C47.52 102.872 35.75 94.534 35.75 82.6595C35.75 71.016 45.078 63.25 55 63.25C65.2685 63.25 74.25 71.016 74.25 82.665Z" fill="#2D1B47"/>
<path d="M55 88C58.0376 88 60.5 85.5376 60.5 82.5C60.5 79.4624 58.0376 77 55 77C51.9624 77 49.5 79.4624 49.5 82.5C49.5 85.5376 51.9624 88 55 88Z" fill="#2D1B47"/>
</svg>
