<svg width="28" height="21" viewBox="0 0 28 21" fill="none" xmlns="http://www.w3.org/2000/svg">
<path d="M6.82484 20.8792H0.00708008V14.0803C3.77164 14.0803 6.82484 17.1251 6.82484 20.8792Z" fill="#F0C018"/>
<path d="M28 14.1506V20.8687C27.9331 20.8722 27.8627 20.8757 27.7922 20.8792H25.9469C24.2883 20.7985 22.6895 20.4965 21.1787 20.0048C20.6998 19.8503 20.2279 19.6747 19.7666 19.4815C16.9388 18.298 14.4737 16.4262 12.5755 14.0803C12.1882 13.6027 11.8254 13.104 11.4874 12.5878C11.3711 12.3911 11.2514 12.198 11.1246 12.0083C10.04 10.3894 8.56094 9.0584 6.82128 8.15586C5.59577 7.5167 4.23997 7.08826 2.80317 6.91969C2.35593 6.86701 1.89813 6.83892 1.4368 6.83892C0.975476 6.83892 0.517671 6.86701 0.0704317 6.91969H0V0.198035C0.475412 0.162917 0.954346 0.141846 1.4368 0.141846C3.31028 0.141846 5.11684 0.422793 6.82128 0.942545C7.40938 1.12165 7.9834 1.32885 8.54333 1.56414C11.3535 2.74061 13.8046 4.59485 15.6956 6.91969C16.0971 7.41135 16.4704 7.92408 16.819 8.45787C16.9352 8.65454 17.055 8.84769 17.1817 9.03733C18.1995 10.558 19.5694 11.8257 21.1752 12.7248C22.3831 13.4025 23.7248 13.8696 25.1511 14.0803C25.711 14.1646 26.2815 14.2068 26.8661 14.2068C27.2464 14.2068 27.6232 14.1892 27.993 14.1541L28 14.1506Z" fill="#6F00FF"/>
<path d="M28 0.12085V6.91977C24.2355 6.91977 21.1823 3.875 21.1823 0.12085H28Z" fill="#F0C018"/>
</svg>
