<svg width="24" height="24" viewBox="0 0 24 24" fill="none" xmlns="http://www.w3.org/2000/svg">
<path d="M10.5 3C9.38376 3 8.27846 3.22532 7.24719 3.66309C6.21592 4.10086 5.27889 4.74251 4.48959 5.5514C2.89553 7.18504 2 9.40072 2 11.711C2 15.5613 4.4395 18.8279 7.814 19.9865C8.239 20.0562 8.375 19.7862 8.375 19.551V18.0788C6.0205 18.6015 5.519 16.9115 5.519 16.9115C5.128 15.901 4.5755 15.631 4.5755 15.631C3.802 15.0909 4.635 15.1083 4.635 15.1083C5.485 15.1693 5.9355 16.0056 5.9355 16.0056C6.675 17.3296 7.9245 16.9376 8.409 16.7286C8.4855 16.1624 8.7065 15.7791 8.9445 15.5613C7.0575 15.3435 5.077 14.5944 5.077 11.2755C5.077 10.3086 5.4 9.53327 5.9525 8.91479C5.8675 8.69701 5.57 7.79107 6.0375 6.61508C6.0375 6.61508 6.7515 6.37988 8.375 7.5036C9.0465 7.31196 9.7775 7.21614 10.5 7.21614C11.2225 7.21614 11.9535 7.31196 12.625 7.5036C14.2485 6.37988 14.9625 6.61508 14.9625 6.61508C15.43 7.79107 15.1325 8.69701 15.0475 8.91479C15.6 9.53327 15.923 10.3086 15.923 11.2755C15.923 14.6031 13.934 15.3348 12.0385 15.5526C12.3445 15.8226 12.625 16.354 12.625 17.1641V19.551C12.625 19.7862 12.761 20.0649 13.1945 19.9865C16.569 18.8192 19 15.5613 19 11.711C19 10.5671 18.7801 9.43433 18.353 8.37746C17.9258 7.32059 17.2997 6.3603 16.5104 5.5514C15.7211 4.74251 14.7841 4.10086 13.7528 3.66309C12.7215 3.22532 11.6162 3 10.5 3Z" fill="#F5C518"/>
</svg>
