<svg width="38" height="38" viewBox="0 0 38 38" fill="none" xmlns="http://www.w3.org/2000/svg">
<path d="M3.16699 9.49992C3.16699 8.66007 3.50062 7.85461 4.09449 7.26075C4.68835 6.66688 5.49381 6.33325 6.33366 6.33325H31.667C32.5068 6.33325 33.3123 6.66688 33.9062 7.26075C34.5 7.85461 34.8337 8.66007 34.8337 9.49992V28.4999C34.8337 29.3398 34.5 30.1452 33.9062 30.7391C33.3123 31.333 32.5068 31.6666 31.667 31.6666H6.33366C5.49381 31.6666 4.68835 31.333 4.09449 30.7391C3.50062 30.1452 3.16699 29.3398 3.16699 28.4999V9.49992ZM8.73874 9.49992L19.0003 18.479L29.2619 9.49992H8.73874ZM31.667 11.6042L20.0437 21.7755C19.755 22.0285 19.3842 22.1679 19.0003 22.1679C18.6164 22.1679 18.2456 22.0285 17.9569 21.7755L6.33366 11.6042V28.4999H31.667V11.6042Z" fill="white"/>
</svg>
