<svg width="24" height="25" viewBox="0 0 24 25" fill="none" xmlns="http://www.w3.org/2000/svg">
<path d="M20.364 13.2071C20.5515 13.0196 20.6568 12.7653 20.6568 12.5001C20.6568 12.2349 20.5515 11.9806 20.364 11.7931L14.707 6.1361C14.6148 6.04059 14.5044 5.96441 14.3824 5.912C14.2604 5.85959 14.1292 5.832 13.9964 5.83085C13.8636 5.82969 13.732 5.855 13.6091 5.90528C13.4862 5.95556 13.3745 6.02981 13.2806 6.1237C13.1867 6.2176 13.1125 6.32925 13.0622 6.45214C13.0119 6.57504 12.9866 6.70672 12.9878 6.8395C12.9889 6.97228 13.0165 7.1035 13.0689 7.2255C13.1213 7.34751 13.1975 7.45785 13.293 7.5501L17.243 11.5001L4.00001 11.5001C3.7348 11.5001 3.48044 11.6055 3.29291 11.793C3.10537 11.9805 3.00001 12.2349 3.00001 12.5001C3.00001 12.7653 3.10537 13.0197 3.29291 13.2072C3.48044 13.3947 3.7348 13.5001 4.00001 13.5001L17.243 13.5001L13.293 17.4501C13.1109 17.6387 13.0101 17.8913 13.0123 18.1535C13.0146 18.4157 13.1198 18.6665 13.3052 18.8519C13.4906 19.0373 13.7414 19.1425 14.0036 19.1448C14.2658 19.1471 14.5184 19.0463 14.707 18.8641L20.364 13.2071Z" fill="white"/>
</svg>
