<svg width="45" height="45" viewBox="0 0 45 45" fill="none" xmlns="http://www.w3.org/2000/svg">
<path d="M27.836 33.8192C23.0243 36.4918 17.9785 37.1098 12.7163 35.4797C8.57913 34.1988 5.30577 31.7269 2.96214 28.1589C-1.94791 20.6861 -0.6423 11.1003 6.0513 5.11278C12.4549 -0.614396 22.4592 -1.04868 29.3594 4.03498C36.7164 9.45561 39.0301 19.5025 34.1139 27.6772C34.2508 27.7624 34.3889 27.8524 34.5308 27.9339C37.3014 29.5445 39.9711 31.295 42.4628 33.2998C44.1231 34.6367 45.0828 36.3203 44.9944 38.4418C44.8849 41.05 43.5768 42.9732 41.1062 43.9683C38.6418 44.9609 36.2795 44.5717 34.3765 42.7336C33.1804 41.5779 32.181 40.2118 31.2014 38.864C30.095 37.3421 29.1105 35.7364 28.0725 34.1671C27.9978 34.0552 27.9219 33.9445 27.8372 33.818L27.836 33.8192ZM6.85284 18.4186C6.85657 24.6239 12.028 29.6722 18.3818 29.6722C24.7145 29.6722 29.8747 24.636 29.8821 18.4466C29.8896 12.2316 24.7431 7.18444 18.383 7.16863C12.0417 7.15281 6.8491 12.2194 6.85284 18.4186Z" fill="white" fill-opacity="0.8"/>
</svg>
