<svg width="45" height="53" viewBox="0 0 45 53" fill="none" xmlns="http://www.w3.org/2000/svg">
<path d="M45 18.5385C44.8859 24.8361 43.925 30.9354 41.3047 36.6837C37.7961 44.3822 32.0681 49.652 24.3043 52.6536C23.055 53.1368 21.7719 53.1069 20.518 52.6111C10.0984 48.4872 3.89692 40.6596 1.28277 29.7439C-0.180842 23.6289 -0.350492 17.4367 0.562533 11.2131C0.792332 9.65007 1.62824 8.52937 3.05022 7.9218C9.0111 5.37033 14.9797 2.8409 20.9467 0.306741C22.0603 -0.165463 23.1584 -0.0615779 24.2564 0.407477C28.6211 2.27425 32.9903 4.12844 37.358 5.98735C38.6181 6.52408 39.8565 7.12693 41.1459 7.58024C43.305 8.34049 44.3677 9.86571 44.5204 12.1417C44.6638 14.2745 44.8381 16.4057 45 18.5385ZM3.243 18.5857C3.38181 23.1157 3.91852 27.5592 5.32969 31.8625C8.05951 40.1874 13.3603 46.0648 21.4079 49.3151C22.0402 49.5701 22.6494 49.663 23.311 49.4033C30.7355 46.474 35.9592 41.2688 38.9327 33.7419C40.5382 29.6778 41.3001 25.4279 41.5068 21.0711C41.6533 17.9876 41.5607 14.912 41.0934 11.8521C41.0256 11.4098 40.8266 11.1501 40.4333 10.9817C34.6097 8.50734 28.7892 6.02355 22.9594 3.56494C22.6772 3.44532 22.2623 3.45004 21.9785 3.56966C16.1657 6.01883 10.3652 8.49947 4.55547 10.9565C4.082 11.1564 3.85991 11.4665 3.81827 11.9654C3.63011 14.1722 3.43424 16.379 3.243 18.5857Z" fill="white" fill-opacity="0.8"/>
<path d="M4.65269 18.5921C4.80229 16.656 4.95497 14.72 5.09686 12.784C5.12616 12.3936 5.27731 12.1717 5.65979 12.0095C11.1163 9.70676 16.5636 7.38037 22.0217 5.07759C22.2716 4.97214 22.6356 4.95954 22.8808 5.06185C28.2849 7.33945 33.6798 9.6438 39.0824 11.9261C39.5527 12.1244 39.8011 12.3558 39.8597 12.9146C40.674 20.6808 40.108 28.2486 36.6764 35.3757C33.7615 41.4309 29.0992 45.5753 22.9517 48.0056C22.6371 48.1299 22.1837 48.0859 21.8598 47.9552C13.8986 44.749 8.86 38.8275 6.37849 30.5593C5.20945 26.662 4.75293 22.6593 4.65269 18.5889V18.5921ZM22.4613 37.913C23.9064 37.913 25.3515 37.9319 26.7966 37.9083C29.2874 37.869 31.0039 36.1155 31.0209 33.5908C31.0379 31.1967 31.024 28.8027 31.024 26.4086C31.024 24.9274 30.421 23.7705 29.2612 22.8828C29.0854 22.749 28.9435 22.4578 28.9327 22.2327C28.8926 21.4111 28.9296 20.5847 28.9095 19.7615C28.8201 16.2971 26.0255 13.4828 22.6279 13.4199C19.1269 13.3553 16.2475 16.0343 16.0547 19.5601C16.0053 20.4604 16.0454 21.3655 16.0084 22.2674C16.0007 22.4657 15.8881 22.7317 15.737 22.8419C14.4569 23.7768 13.8847 25.0455 13.8924 26.6289C13.9048 28.905 13.8909 31.1826 13.8971 33.4586C13.9048 36.1092 15.6398 37.8894 18.2416 37.9115C19.6482 37.924 21.0547 37.913 22.4613 37.913Z" fill="white" fill-opacity="0.8"/>
<path d="M22.4721 23.5612C23.8786 23.5612 25.2837 23.5581 26.6902 23.5612C28.5039 23.5675 29.6251 24.685 29.6329 26.514C29.6421 28.8483 29.6421 31.1841 29.6329 33.5184C29.6267 35.349 28.5132 36.4885 26.7072 36.4964C23.8756 36.509 21.0439 36.5106 18.2123 36.4964C16.4187 36.487 15.2882 35.3222 15.282 33.5074C15.2743 31.192 15.2759 28.8766 15.282 26.5613C15.2866 24.7087 16.4202 23.5691 18.254 23.5628C19.6605 23.5581 21.0655 23.5612 22.4721 23.5612ZM21.7626 32.0231C21.7626 32.0231 21.7688 32.0231 21.7704 32.0231C21.7704 32.3568 21.7457 32.692 21.7765 33.021C21.8151 33.4428 22.0433 33.723 22.4891 33.7041C22.9301 33.6852 23.1399 33.4082 23.1461 32.9722C23.1538 32.4827 23.1738 31.9916 23.143 31.5037C23.1137 31.0503 23.2263 30.7812 23.6643 30.5435C24.5819 30.0493 24.9829 28.9254 24.7115 27.9133C24.4431 26.9107 23.5208 26.1819 22.4983 26.1646C21.485 26.1473 20.5335 26.8556 20.2389 27.8488C19.9366 28.8672 20.2898 30.0021 21.2074 30.4979C21.7256 30.778 21.8135 31.1164 21.7626 31.6123C21.7488 31.7476 21.7626 31.8861 21.7626 32.0231Z" fill="white" fill-opacity="0.8"/>
<path d="M27.5261 22.1336H17.4474C17.3132 19.9221 17.2592 17.7625 19.0883 16.1492C20.6939 14.7326 22.5322 14.4115 24.4709 15.2599C26.4126 16.1098 27.4197 17.7075 27.5215 19.8638C27.557 20.6052 27.5277 21.3481 27.5277 22.1351L27.5261 22.1336Z" fill="white" fill-opacity="0.8"/>
<path d="M23.3944 28.5603C23.3882 29.0828 22.9934 29.4811 22.4736 29.4874C21.9416 29.4936 21.5082 29.0529 21.5236 28.5225C21.5375 28.0188 21.9662 27.5859 22.4551 27.5828C22.9826 27.5781 23.4021 28.0157 23.3959 28.5618L23.3944 28.5603Z" fill="white" fill-opacity="0.8"/>
</svg>
