<svg width="45" height="45" viewBox="0 0 45 45" fill="none" xmlns="http://www.w3.org/2000/svg">
<path d="M42.7704 0.00136306C41.2396 0.0431793 39.7077 0.0112669 38.1758 0.0145682C37.1735 0.016769 36.6847 0.525167 36.6804 1.55957C36.6793 1.9073 36.6804 2.25504 36.6804 2.62588H26.1246C25.7024 1.57057 25.0106 0.769461 23.961 0.322688C22.0778 -0.479524 19.9067 0.377709 19.0376 2.27375C18.9399 2.48723 18.8722 2.6611 18.5617 2.6589C15.2121 2.64349 11.8636 2.64899 8.51406 2.64789C8.47217 2.64789 8.4292 2.64019 8.31962 2.62918C8.31962 2.27705 8.32069 1.91831 8.31962 1.55957C8.31532 0.525167 7.82653 0.016769 6.82423 0.0145682C5.29232 0.0123673 3.76041 0.0431793 2.22958 0.00136306C1.43247 -0.0206455 0.842693 0.220348 0.5 0.980743V6.95496C0.843767 7.71646 1.43354 7.95525 2.2328 7.93324C3.77868 7.89143 5.3267 7.92444 6.87365 7.92004C7.79967 7.91784 8.31103 7.39513 8.32069 6.45647C8.32392 6.06802 8.32069 5.67847 8.32069 5.31093H13.431C12.6565 5.95688 11.8368 6.55441 11.1149 7.25648C8.04676 10.2397 6.31288 13.9053 5.90466 18.2156C5.86706 18.6096 5.7317 18.8132 5.36752 18.9826C3.22543 19.9807 2.4831 22.8176 3.86032 24.7478C4.84865 26.1321 6.20438 26.6757 7.85016 26.3577C9.31332 26.0749 10.5605 24.7489 10.8141 23.2875C11.1031 21.6171 10.509 20.0335 9.08235 19.2192C8.42168 18.8418 8.42812 18.4335 8.50547 17.8349C9.24886 12.1479 13.3418 7.36432 18.7605 5.85674C18.9947 5.79181 19.1096 5.82593 19.245 6.03941C20.8295 8.54618 24.1662 8.54508 25.755 6.03831C25.8732 5.85123 25.972 5.77751 26.1998 5.84243C29.1616 6.68866 31.6109 8.3261 33.5263 10.7856C35.2946 13.0568 36.2775 15.6527 36.5676 18.5348C36.5923 18.7802 36.4978 18.8649 36.3119 18.9606C34.2536 20.0225 33.5209 22.3885 34.6113 24.4308C35.3837 25.8768 36.8952 26.6174 38.6012 26.3863C40.0719 26.1871 41.3642 24.9514 41.7327 23.3909C42.0915 21.8735 41.52 20.0842 40.1707 19.3359C39.293 18.8484 39.1115 18.2299 38.9847 17.3419C38.3294 12.763 36.2034 9.03367 32.6315 6.17806C32.2683 5.88755 31.887 5.62125 31.4594 5.30322H36.6793C36.6793 5.68507 36.6772 6.04711 36.6793 6.40915C36.6847 7.40504 37.1864 7.91564 38.1693 7.91674C39.7023 7.92004 41.2353 7.88813 42.7672 7.92994C43.5675 7.95195 44.1573 7.71206 44.5 6.95166V0.980743C44.1595 0.220348 43.5697 -0.0206455 42.7704 0.00136306Z" fill="white" fill-opacity="0.8"/>
<path d="M26.3642 39.6486C23.7891 39.6167 21.213 39.6167 18.638 39.6486C16.4153 39.6761 14.5439 41.0935 13.7791 43.2448C13.5481 43.8941 13.7812 44.5125 14.3807 44.8415C14.4795 44.8955 14.5805 44.9472 14.6804 45H30.3218C31.2199 44.5257 31.4906 43.9975 31.2231 43.2448C30.4582 41.0935 28.5857 39.6772 26.3642 39.6486Z" fill="white" fill-opacity="0.8"/>
<path d="M24.062 11.9872C23.9965 11.8859 23.9191 11.7935 23.8031 11.6383V24.0578C23.8987 24.1062 23.9868 24.1524 24.077 24.1953C26.4394 25.3189 27.0968 28.2592 25.4446 30.3137C24.4423 31.5605 22.8277 32.0172 21.2506 31.4989C19.7724 31.0136 18.7551 29.6226 18.6434 27.9291C18.5445 26.4402 19.448 24.9007 20.8317 24.2514C21.1185 24.1172 21.2227 23.9686 21.2216 23.6374C21.2077 19.787 21.213 15.9366 21.213 12.0873V11.5976C21.0551 11.8243 20.9638 11.9476 20.88 12.0763C19.0537 14.8758 17.2275 17.6753 15.4023 20.4748C14.0133 22.6052 12.6232 24.7345 11.2373 26.8672C10.7539 27.611 10.7958 28.1437 11.3684 28.8094C11.4909 28.9525 11.6219 29.0878 11.7476 29.2287C13.1044 30.7473 14.1583 32.4628 14.8469 34.3941C15.2121 35.4186 15.485 36.4783 15.8041 37.538C15.8546 37.5259 15.9394 37.5149 16.0178 37.4863C16.9707 37.1319 17.9548 36.9966 18.9667 37.001C21.372 37.0109 23.7784 36.9779 26.1837 37.0197C26.9614 37.0329 27.7392 37.2123 28.5127 37.3366C28.7587 37.3762 28.994 37.4841 29.2453 37.5644C29.2851 37.4236 29.3195 37.3278 29.3388 37.2299C29.9748 34.0078 31.3896 31.2039 33.6144 28.8237C34.2407 28.1547 34.2514 27.6121 33.7304 26.8121C30.5087 21.8701 27.2859 16.9281 24.062 11.9872Z" fill="white" fill-opacity="0.8"/>
<path d="M22.4968 29.0933C23.1983 29.0955 23.7848 28.4991 23.787 27.7827C23.7891 27.0663 23.2058 26.4666 22.5054 26.4644C21.8039 26.4622 21.2173 27.0586 21.2152 27.775C21.213 28.4914 21.7964 29.0911 22.4968 29.0933Z" fill="white" fill-opacity="0.8"/>
</svg>
