<svg width="45" height="45" viewBox="0 0 45 45" fill="none" xmlns="http://www.w3.org/2000/svg">
<path d="M0.00679981 22.4729C0.00679981 18.3036 -0.0115527 14.1356 0.0120434 9.96631C0.0408831 5.09318 3.31419 1.13622 8.08323 0.18466C8.67182 0.0666985 9.28401 0.0182031 9.88571 0.0168924C18.2899 0.00640692 26.694 -0.0158748 35.0982 0.0182031C39.9485 0.0378634 43.8812 3.33686 44.8211 8.09465C44.9535 8.7631 44.9889 9.45777 44.9902 10.1419C45.0007 18.3809 45.0033 26.6212 44.9954 34.8602C44.9902 39.8591 41.7798 43.824 36.9452 44.807C36.3566 44.9263 35.7457 44.98 35.144 44.9813C26.7228 44.9931 18.303 45.018 9.88177 44.9787C5.04981 44.9551 1.14072 41.6679 0.189014 36.9271C0.0487485 36.2285 0.017287 35.4985 0.0146652 34.7829C-0.00106557 30.6791 0.00679981 26.5766 0.00679981 22.4729ZM19.9626 31.6084C20.6613 31.6215 21.2656 31.1706 21.5186 30.413C23.1664 25.477 24.8116 20.5383 26.4476 15.5983C26.5328 15.3414 26.5826 15.0518 26.5564 14.7857C26.4843 14.0308 25.8852 13.4672 25.1367 13.3951C24.4183 13.3256 23.7497 13.7988 23.4849 14.5865C22.2068 18.4084 20.9339 22.2317 19.6584 26.0537C19.277 27.1992 18.8798 28.3395 18.5166 29.4903C18.1784 30.5611 18.8929 31.5874 19.9613 31.6084H19.9626ZM12.1483 22.4952C13.471 21.1792 14.7491 19.9157 16.0155 18.6404C16.6906 17.9602 16.6997 16.989 16.0653 16.3638C15.4282 15.736 14.4738 15.7595 13.7882 16.4398C12.1536 18.065 10.5215 19.6942 8.89729 21.33C8.18154 22.0508 8.1881 22.9487 8.90254 23.6748C9.61304 24.3983 10.3353 25.11 11.0524 25.8269C11.9884 26.7628 12.9191 27.7065 13.8656 28.6331C14.3742 29.1312 15.0742 29.2255 15.6759 28.9175C16.2645 28.6161 16.6342 28.0066 16.4966 27.3382C16.4192 26.9646 16.2003 26.5714 15.9342 26.2935C14.7111 25.0235 13.4487 23.7901 12.1496 22.4952H12.1483ZM32.8552 22.5043C31.5365 23.8177 30.2583 25.0812 28.992 26.3565C28.3156 27.0367 28.3012 28.0001 28.933 28.6318C29.5623 29.2609 30.5258 29.2426 31.21 28.5636C32.8474 26.9397 34.4781 25.3105 36.1023 23.6735C36.8207 22.95 36.8154 22.0548 36.1049 21.3273C35.4534 20.6602 34.7888 20.0075 34.1294 19.3482C33.1344 18.3547 32.1539 17.3455 31.1406 16.3716C30.2675 15.5315 28.8635 15.8959 28.5398 17.0322C28.3589 17.6692 28.5476 18.2145 29.0209 18.6811C30.2872 19.9328 31.5443 21.195 32.8552 22.5043Z" fill="white" fill-opacity="0.8"/>
</svg>
