<svg width="61" height="45" viewBox="0 0 61 45" fill="none" xmlns="http://www.w3.org/2000/svg">
<path d="M30.4912 30.4073C29.5902 30.1654 28.6893 30.0356 27.8763 29.6898C19.3865 26.0697 10.9096 22.4172 2.43263 18.7679C0.910714 18.1137 -0.0462838 16.703 0.00172615 15.1154C0.0545371 13.4125 0.873906 12.1836 2.41823 11.5181C10.9128 7.85581 19.4105 4.2049 27.9099 0.555622C29.6527 -0.19274 31.405 -0.181376 33.1462 0.566986C41.6071 4.2049 50.0681 7.84444 58.5274 11.4856C60.1198 12.1707 61.0079 13.4028 60.9999 15.1592C60.9919 16.8881 60.1102 18.1089 58.5418 18.7842C50.0649 22.4351 41.5895 26.0892 33.0998 29.7109C32.2884 30.0567 31.3826 30.1752 30.4912 30.4073Z" fill="white" fill-opacity="0.8"/>
<path d="M49.604 25.474C49.6408 25.5503 49.6728 25.5827 49.6728 25.6168C49.6728 28.9447 49.7608 32.2758 49.6344 35.5988C49.548 37.852 48.3557 39.5808 46.4113 40.6977C39.9684 44.3989 33.0806 45.7171 25.7511 44.6327C21.7758 44.045 18.0535 42.7139 14.5807 40.6734C12.4779 39.4364 11.3801 37.5403 11.3497 35.0728C11.3129 32.029 11.3401 28.9853 11.3417 25.9399C11.3417 25.8003 11.3561 25.6607 11.3673 25.4431C11.5849 25.5275 11.7658 25.5925 11.9418 25.6672C16.8804 27.7905 21.8206 29.909 26.7561 32.042C29.2142 33.1053 31.6691 33.1508 34.1368 32.0924C39.1138 29.956 44.0908 27.8197 49.0679 25.685C49.2455 25.6087 49.4296 25.5438 49.6072 25.474H49.604Z" fill="white" fill-opacity="0.8"/>
<path d="M56.7094 32.6897C57.8201 33.555 58.0473 34.7254 57.9881 36.0209C57.9513 36.8309 57.9929 37.6426 57.9753 38.4542C57.9561 39.2838 57.4952 39.7935 56.6774 39.8146C55.4212 39.8471 54.1633 39.8487 52.9071 39.8146C52.0765 39.7919 51.6156 39.2529 51.6044 38.3893C51.5932 37.6588 51.6316 36.9283 51.5964 36.1994C51.5308 34.852 51.7132 33.6053 52.8607 32.7076C52.6222 32.4365 52.4078 32.2271 52.2317 31.9868C51.1179 30.4625 51.5148 28.3489 53.1295 27.3311C53.4288 27.1428 53.536 26.9577 53.5264 26.6152C53.5056 25.8051 53.496 24.9918 53.5376 24.1834C53.5472 23.9854 53.7296 23.711 53.9057 23.6234C54.581 23.2873 55.2852 23.0114 56.0661 22.677C56.0661 24.0048 56.0789 25.2548 56.0581 26.5032C56.0517 26.9058 56.1557 27.1412 56.5222 27.37C58.2106 28.4301 58.6186 31.0063 56.711 32.6946L56.7094 32.6897Z" fill="white" fill-opacity="0.8"/>
</svg>
